<?xml version="1.0" standalone="no"?>
<!DOCTYPE svg PUBLIC "-//W3C//DTD SVG 20010904//EN"
 "http://www.w3.org/TR/2001/REC-SVG-20010904/DTD/svg10.dtd">
<svg version="1.0" xmlns="http://www.w3.org/2000/svg"
 width="913.000000pt" height="913.000000pt" viewBox="0 0 913.000000 913.000000"
 preserveAspectRatio="xMidYMid meet">
<metadata>
Created by potrace 1.14, written by Peter Selinger 2001-2017
</metadata>
<g transform="translate(0.000000,913.000000) scale(0.100000,-0.100000)"
fill="#000000" stroke="none">
<path d="M4075 6449 c-350 -47 -1677 -234 -1742 -246 l-33 -5 0 125 0 125 -31
11 c-129 45 -546 34 -683 -19 l-26 -10 0 -157 0 -158 -348 -43 c-326 -40 -669
-99 -716 -124 -39 -20 -56 -41 -56 -70 0 -67 120 -94 380 -84 176 6 282 20
717 92 192 32 232 41 228 54 -7 23 -11 417 -4 424 8 8 336 13 343 5 4 -4 8
-95 9 -203 l2 -196 25 4 c14 3 160 22 325 42 165 20 656 90 1090 156 652 99
802 119 860 114 39 -3 291 -42 560 -86 542 -89 1079 -172 1225 -190 154 -19
442 -67 625 -106 321 -67 901 -143 1485 -194 124 -10 274 -24 333 -30 95 -10
111 -10 133 4 13 9 24 24 24 33 0 26 -45 78 -98 112 -88 56 -176 78 -441 111
-581 73 -1138 159 -2066 320 -331 57 -731 118 -1015 155 -201 26 -731 86 -740
84 -3 -1 -167 -23 -365 -50z"/>
<path d="M1712 5165 c-62 -19 -109 -59 -139 -118 -22 -42 -27 -69 -31 -146 -8
-161 30 -256 120 -302 57 -29 150 -36 220 -15 42 12 65 27 101 65 58 62 72
108 71 241 0 119 -17 171 -73 227 -56 57 -175 78 -269 48z m184 -75 c55 -35
79 -98 79 -210 0 -81 -4 -102 -25 -144 -37 -74 -66 -91 -155 -91 -85 0 -116
16 -149 81 -18 32 -21 57 -21 149 0 102 2 114 27 156 16 27 41 53 60 62 48 24
142 22 184 -3z"/>
<path d="M2353 5166 c-101 -33 -161 -99 -189 -208 -30 -117 -5 -227 71 -305
55 -57 120 -83 206 -83 60 0 175 35 183 56 8 20 8 238 0 258 -5 13 -25 16
-115 16 l-109 0 0 -30 0 -30 75 0 75 0 0 -89 0 -89 -31 -11 c-41 -14 -119 -14
-156 0 -38 14 -81 56 -105 104 -25 48 -30 160 -9 218 17 50 67 106 108 123 57
24 143 18 207 -15 61 -30 71 -27 64 21 -8 55 -179 96 -275 64z"/>
<path d="M2922 5165 c-62 -19 -109 -59 -139 -118 -22 -42 -27 -69 -31 -146 -8
-161 30 -256 120 -302 92 -47 239 -32 307 33 19 17 46 57 60 87 23 50 26 68
26 166 -1 125 -17 176 -76 233 -58 56 -173 77 -267 47z m184 -75 c55 -35 79
-98 79 -210 0 -81 -4 -102 -25 -144 -37 -74 -66 -91 -155 -91 -131 0 -170 53
-170 230 0 102 2 114 27 156 16 27 41 53 60 62 48 24 142 22 184 -3z"/>
<path d="M4322 5165 c-62 -19 -109 -59 -139 -118 -22 -42 -27 -69 -31 -146 -3
-53 1 -117 7 -147 24 -106 100 -171 212 -181 198 -18 315 122 295 354 -7 88
-30 146 -77 191 -58 56 -173 77 -267 47z m184 -75 c55 -35 79 -98 79 -210 0
-81 -4 -102 -25 -144 -37 -74 -66 -91 -155 -91 -85 0 -116 16 -149 81 -28 53
-35 193 -12 262 16 46 63 103 96 115 39 14 133 7 166 -13z"/>
<path d="M5147 5166 c-124 -46 -187 -183 -165 -363 10 -89 50 -159 113 -198
43 -26 57 -30 124 -30 62 0 86 5 126 26 45 22 50 29 53 62 2 20 1 37 -1 37 -3
0 -31 -13 -62 -30 -90 -47 -172 -37 -228 29 -36 43 -50 100 -45 191 8 188 130
272 275 190 58 -33 72 -27 59 25 -14 55 -165 92 -249 61z"/>
<path d="M1185 5158 c-3 -7 -4 -139 -3 -293 l3 -280 148 -3 148 -3 -3 33 -3
33 -107 3 -108 3 -2 257 -3 257 -33 3 c-20 2 -34 -2 -37 -10z"/>
<path d="M3615 5158 c-3 -7 -4 -139 -3 -293 l3 -280 120 0 c145 0 194 15 254
80 51 55 66 107 66 220 -1 137 -43 212 -144 259 -59 26 -287 38 -296 14z m271
-83 c63 -37 89 -96 89 -205 0 -72 -4 -92 -25 -130 -37 -66 -85 -90 -182 -90
l-78 0 0 225 0 225 77 0 c63 0 83 -4 119 -25z"/>
<path d="M5515 5158 c-3 -7 -4 -139 -3 -293 l3 -280 148 -3 148 -3 -3 33 -3
33 -107 3 -108 3 -2 257 -3 257 -33 3 c-20 2 -34 -2 -37 -10z"/>
<path d="M5905 5158 c-3 -7 -4 -139 -3 -293 l3 -280 35 0 35 0 0 290 0 290
-33 3 c-20 2 -34 -2 -37 -10z"/>
<path d="M6135 5158 c-3 -7 -4 -139 -3 -293 l3 -280 156 -3 c167 -3 175 0 158
46 -8 21 -13 22 -124 22 l-115 0 0 105 0 104 103 3 102 3 3 28 3 27 -105 0
-106 0 0 90 0 89 118 3 117 3 0 30 0 30 -153 3 c-117 2 -154 0 -157 -10z"/>
<path d="M6585 5157 c-3 -7 -4 -138 -3 -292 l3 -280 33 -3 32 -3 0 253 0 253
59 -110 c98 -182 195 -353 214 -375 13 -16 27 -20 55 -18 l37 3 3 293 2 293
-32 -3 -33 -3 -5 -233 -5 -234 -39 74 c-84 158 -200 364 -214 381 -18 20 -100
24 -107 4z"/>
<path d="M7112 5138 l3 -33 88 -3 87 -3 0 -259 0 -260 35 0 35 0 0 260 0 260
84 0 c90 0 113 11 101 50 -6 19 -13 20 -221 20 l-215 0 3 -32z"/>
<path d="M7635 5157 c-3 -7 -4 -138 -3 -292 l3 -280 156 -3 c146 -2 157 -1
161 16 3 11 1 27 -4 36 -7 13 -28 16 -123 16 l-115 0 0 105 0 104 103 3 102 3
3 28 3 27 -105 0 -106 0 0 90 0 89 118 3 117 3 3 33 3 32 -156 0 c-116 0 -157
-3 -160 -13z"/>
<path d="M2815 4013 c-885 -13 -2177 -57 -2250 -76 -138 -38 -187 -110 -102
-150 96 -46 138 -47 892 -18 3047 117 5418 87 7004 -89 174 -19 187 -20 235
-4 95 32 163 93 181 166 8 33 -6 41 -95 56 -159 27 -525 45 -1395 67 -324 8
-763 20 -975 25 -993 26 -2603 37 -3495 23z"/>
</g>
</svg>
